<svg version="1.1" id="Layer_1" xmlns="http://www.w3.org/2000/svg" x="0" y="0" viewBox="0 0 512 512" xml:space="preserve"><style>.st0{fill:#fff}</style><path class="st0" d="M370.7 0H141.3C63.4 0 0 63.4 0 141.3v229.4C0 448.6 63.4 512 141.3 512h229.4c77.9 0 141.3-63.4 141.3-141.3V141.3C512 63.4 448.6 0 370.7 0zm95.9 370.7c0 52.9-43 95.9-95.9 95.9H141.3c-52.9 0-95.9-43-95.9-95.9V141.3c0-52.9 43-95.9 95.9-95.9h229.4c52.9 0 95.9 43 95.9 95.9v229.4z"/><path class="st0" d="M325.8 231.3v-44.8c0-12.4 10-22.4 22.4-22.4h22.4v-56h-44.8c-37.1 0-67.2 30.1-67.2 67.2v56h-44.8v56h44.8v179.3h67.2V287.3h44.8l22.4-56h-67.2z"/></svg>