<svg version="1.1" id="Layer_1" xmlns="http://www.w3.org/2000/svg" x="0" y="0" viewBox="0 0 512 512" xml:space="preserve"><style>.st0{fill:#fff}</style><path class="st0" d="M370.7 0H141.3C63.4 0 0 63.4 0 141.3v229.4C0 448.6 63.4 512 141.3 512h229.4c77.9 0 141.3-63.4 141.3-141.3V141.3C512 63.4 448.6 0 370.7 0zm95.9 370.7c0 52.9-43 95.9-95.9 95.9H141.3c-52.9 0-95.9-43-95.9-95.9V141.3c0-52.9 43-95.9 95.9-95.9h229.4c52.9 0 95.9 43 95.9 95.9v229.4z"/><path class="st0" d="M158.3 289.5c12.2 16.5 26.1 31 44.2 41.4 20.4 11.7 42.4 15.2 65.7 14.1 10.8-.5 14.1-3.3 14.6-14.2.3-7.4 1.2-14.8 4.8-21.4 3.6-6.5 9-7.8 15.3-3.7 3.1 2.1 5.8 4.6 8.2 7.4 6.1 6.7 12 13.6 18.4 20 8 8.1 17.4 12.9 29.2 11.9h45.9c7.4-.5 11.2-9.6 7-17.8-3-5.8-6.9-10.9-11-15.9-9.4-11.3-20.4-20.9-30.9-31-9.4-9.2-10-14.5-2.4-25.1 8.3-11.6 17.2-22.7 25.5-34.2 7.8-10.8 15.8-21.5 19.8-34.4 2.6-8.2.3-11.8-8.1-13.3-1.5-.2-3-.2-4.4-.2l-49.9-.1c-6.1-.1-9.5 2.6-11.7 8-2.9 7.4-6 14.7-9.5 21.8-7.9 16.1-16.8 31.7-29.2 44.9-2.7 2.9-5.8 6.6-10.4 5.1-5.7-2.1-7.4-11.5-7.3-14.7v-57.6c-1.1-8.2-2.9-11.9-11.1-13.5h-52c-6.9 0-10.4 2.7-14.1 7-2.1 2.5-2.8 4.1 1.6 5 8.6 1.6 13.5 7.2 14.7 15.8 2.1 13.8 1.9 27.6.7 41.5-.3 4-1 8.1-2.6 11.8-2.5 5.9-6.6 7.1-11.9 3.5-4.8-3.3-8.2-8-11.5-12.6-12.4-17.6-22.3-36.5-30.4-56.4-2.3-5.8-6.4-9.2-12.5-9.3-15-.2-30-.3-44.9 0-9 .2-11.7 4.5-8 12.7 16.3 36.1 34.5 71.3 58.2 103.5z"/></svg>