<svg width="15" height="14" viewBox="0 0 15 14" fill="none" xmlns="http://www.w3.org/2000/svg">
<path d="M4.83282 9.19735H4.83351C4.83408 9.19735 4.83465 9.19724 4.83523 9.19724H12.8027C12.9988 9.19724 13.1713 9.06712 13.2252 8.87852L14.983 2.7262C15.0209 2.59356 14.9943 2.45097 14.9114 2.34087C14.8283 2.23078 14.6984 2.16601 14.5605 2.16601H3.81934L3.5052 0.752326C3.46045 0.551254 3.28215 0.408203 3.07616 0.408203H0.439452C0.196723 0.408203 0 0.604926 0 0.847655C0 1.09038 0.196723 1.28711 0.439452 1.28711H2.72368C2.7793 1.53762 4.22698 8.05226 4.31029 8.42705C3.84326 8.63007 3.51561 9.09573 3.51561 9.63669C3.51561 10.3636 4.10704 10.955 4.83397 10.955H12.8027C13.0454 10.955 13.2421 10.7583 13.2421 10.5156C13.2421 10.2729 13.0454 10.0761 12.8027 10.0761H4.83397C4.5917 10.0761 4.39452 9.87896 4.39452 9.63669C4.39452 9.39476 4.59101 9.19792 4.83282 9.19735ZM13.9779 3.04491L12.4712 8.31833H5.18644L4.01457 3.04491H13.9779Z" fill="black"/>
<path d="M4.39465 12.2734C4.39465 13.0004 4.98608 13.5918 5.71301 13.5918C6.43993 13.5918 7.03136 13.0004 7.03136 12.2734C7.03136 11.5465 6.43993 10.9551 5.71301 10.9551C4.98608 10.9551 4.39465 11.5465 4.39465 12.2734ZM5.71301 11.834C5.95528 11.834 6.15246 12.0312 6.15246 12.2734C6.15246 12.5157 5.95528 12.7129 5.71301 12.7129C5.47074 12.7129 5.27356 12.5157 5.27356 12.2734C5.27356 12.0312 5.47074 11.834 5.71301 11.834Z" fill="black"/>
<path d="M10.6055 12.2734C10.6055 13.0004 11.1969 13.5918 11.9238 13.5918C12.6507 13.5918 13.2422 13.0004 13.2422 12.2734C13.2422 11.5465 12.6507 10.9551 11.9238 10.9551C11.1969 10.9551 10.6055 11.5465 10.6055 12.2734ZM11.9238 11.834C12.1661 11.834 12.3633 12.0312 12.3633 12.2734C12.3633 12.5157 12.1661 12.7129 11.9238 12.7129C11.6816 12.7129 11.4844 12.5157 11.4844 12.2734C11.4844 12.0312 11.6816 11.834 11.9238 11.834Z" fill="black"/>
</svg>
