<svg width="20" height="20" viewBox="0 0 20 20" fill="none" xmlns="http://www.w3.org/2000/svg">
<path d="M14.9935 6.71243C14.6856 6.38782 14.1724 6.37352 13.8473 6.68216L8.67105 11.5911L6.20215 9.05622C5.88945 8.7354 5.37676 8.72837 5.05566 9.0411C4.73484 9.35352 4.72808 9.86677 5.04051 10.1876L8.06754 13.2954C8.22617 13.4584 8.43699 13.5406 8.64836 13.5406C8.8489 13.5406 9.04945 13.4665 9.20648 13.3181L14.9632 7.85868C15.2881 7.55056 15.3018 7.03731 14.9935 6.71243Z" fill="#13CA26"/>
<path d="M10 0C4.48594 0 0 4.48594 0 10C0 15.5141 4.48594 20 10 20C15.5141 20 20 15.5141 20 10C20 4.48594 15.5141 0 10 0ZM10 18.3784C5.38027 18.3784 1.6216 14.62 1.6216 10C1.6216 5.38027 5.38023 1.6216 10 1.6216C14.62 1.6216 18.3784 5.38023 18.3784 10C18.3784 14.62 14.62 18.3784 10 18.3784Z" fill="#13CA26"/>
</svg>
