<svg width="12" height="14" viewBox="0 0 12 14" fill="none" xmlns="http://www.w3.org/2000/svg">
<path d="M2.875 13.1H7.35156C8.4407 13.1 9.32656 12.2141 9.32656 11.125V4.77344C9.32656 3.6843 8.4407 2.79844 7.35156 2.79844H2.875C1.78587 2.79844 0.9 3.6843 0.9 4.77344V11.125C0.9 12.2141 1.78587 13.1 2.875 13.1ZM2.0375 4.77344C2.0375 4.31176 2.41332 3.93594 2.875 3.93594H7.35156C7.81324 3.93594 8.18906 4.31176 8.18906 4.77344V11.125C8.18906 11.5867 7.81324 11.9625 7.35156 11.9625H2.875C2.41332 11.9625 2.0375 11.5867 2.0375 11.125V4.77344ZM11.2016 9.95312V2.875C11.2016 1.78587 10.3157 0.9 9.22656 0.9H4.02344C3.7093 0.9 3.45469 1.15461 3.45469 1.46875C3.45469 1.78289 3.7093 2.0375 4.02344 2.0375H9.22656C9.68824 2.0375 10.0641 2.41332 10.0641 2.875V9.95312C10.0641 10.2673 10.3187 10.5219 10.6328 10.5219C10.947 10.5219 11.2016 10.2673 11.2016 9.95312Z" fill="#FF0000" stroke="#FF0000" stroke-width="0.2"/>
</svg>
