<svg width="16" height="16" viewBox="0 0 16 16" fill="none" xmlns="http://www.w3.org/2000/svg">
<path fill-rule="evenodd" clip-rule="evenodd" d="M11.7712 5.17162L5.17155 11.7713C4.9112 12.0316 4.48909 12.0316 4.22874 11.7713C3.96839 11.5109 3.96839 11.0888 4.22874 10.8285L10.8284 4.22881C11.0888 3.96846 11.5109 3.96846 11.7712 4.22881C12.0316 4.48916 12.0316 4.91127 11.7712 5.17162Z" fill="#FF0000"/>
<path fill-rule="evenodd" clip-rule="evenodd" d="M10.8284 11.7713L4.22874 5.17159C3.96839 4.91124 3.96839 4.48913 4.22874 4.22878C4.48909 3.96843 4.9112 3.96843 5.17155 4.22878L11.7712 10.8284C12.0316 11.0888 12.0316 11.5109 11.7712 11.7713C11.5109 12.0316 11.0887 12.0316 10.8284 11.7713Z" fill="#FF0000"/>
</svg>
