<svg width="21" height="18" viewBox="0 0 21 18" fill="none" xmlns="http://www.w3.org/2000/svg">
<path d="M9.31743 3.6434L10.1947 5.24657L11.0719 3.64342C11.3702 3.09833 11.8608 2.38185 12.5703 1.83312L11.9586 1.04209L12.5703 1.83312C13.2934 1.27395 14.0936 1 14.9735 1C17.4338 1 19.3894 2.99968 19.3894 5.87445C19.3894 7.37587 18.8004 8.68082 17.6174 10.1083C16.4091 11.5663 14.6605 13.0607 12.4389 14.9539L12.4389 14.9539L12.4378 14.9549C11.7587 15.5336 10.9935 16.1857 10.1947 16.8813C9.39637 16.1862 8.63152 15.5343 7.95315 14.9562L7.95094 14.9543L7.95092 14.9543C5.7291 13.0609 3.98043 11.5664 2.77205 10.1083C1.58901 8.68082 1 7.37587 1 5.87445C1 2.99968 2.95561 1 5.41593 1C6.29579 1 7.09602 1.27395 7.81904 1.83312L8.43081 1.04209L7.81904 1.83312C8.52856 2.38186 9.01916 3.0983 9.31743 3.6434Z" stroke="#BDBDBD" stroke-width="2"/>
</svg>
