<svg width="21" height="18" viewBox="0 0 21 18" fill="none" xmlns="http://www.w3.org/2000/svg">
<path d="M9.75606 3.40339L10.1947 4.20498L10.6333 3.4034C10.9504 2.82386 11.4811 2.04343 12.2645 1.43761L11.9586 1.04209L12.2645 1.43761C13.073 0.812276 13.9803 0.5 14.9735 0.5C17.7474 0.5 19.8894 2.76257 19.8894 5.87445C19.8894 7.52968 19.2318 8.94385 18.0024 10.4273C16.7603 11.9261 14.9733 13.4511 12.7632 15.3345L12.7632 15.3345L12.7629 15.3348C12.016 15.9713 11.1674 16.6945 10.285 17.4662L10.2848 17.4664C10.2602 17.4879 10.2284 17.5 10.1947 17.5C10.161 17.5 10.1292 17.4879 10.1047 17.4664L10.1044 17.4662C9.22248 16.6949 8.37424 15.972 7.62807 15.3361L7.62662 15.3349L7.62661 15.3349C5.41633 13.4513 3.62921 11.9262 2.38707 10.4274C1.15761 8.94384 0.5 7.52968 0.5 5.87445C0.5 2.76257 2.64199 0.5 5.41593 0.5C6.40906 0.5 7.31636 0.812276 8.12492 1.43761L8.43081 1.04209L8.12492 1.43761C8.90828 2.04344 9.43893 2.82383 9.75606 3.40339Z" fill="#FF0000" stroke="#FF0000"/>
</svg>
