<svg width="12" height="12" viewBox="0 0 12 12" fill="none" xmlns="http://www.w3.org/2000/svg">
<path d="M10.868 3.81223L10.3709 0.331969C10.33 0.0466406 9.97931 -0.0719297 9.77418 0.133195L9.0501 0.857273C8.119 0.295594 7.06192 0 5.97496 0C2.70618 0 0.0818143 2.55844 0.000111206 5.82448C-0.00434192 6.003 0.125432 6.15612 0.301892 6.18152L1.70676 6.38236C1.9162 6.41292 2.11103 6.24848 2.10813 6.02944C2.07899 3.87389 3.81998 2.10938 5.97496 2.10938C6.4968 2.10938 7.01247 2.21545 7.48903 2.41835L6.79106 3.11632C6.58722 3.32016 6.70291 3.67193 6.98983 3.71302L10.4701 4.21015C10.6994 4.24472 10.9009 4.04529 10.868 3.81223Z" fill="#FF0000"/>
<path d="M11.698 5.84557L10.2942 5.64506C10.1129 5.6221 9.89287 5.77751 9.89287 6.02342C9.89287 8.15578 8.15805 9.8906 6.02568 9.8906C5.50659 9.8906 4.9933 9.78556 4.51851 9.5847L5.19416 8.90904C5.398 8.7052 5.28231 8.35343 4.99539 8.31235L1.51513 7.81486C1.28655 7.78221 1.08412 7.97824 1.11721 8.21278L1.61432 11.6931C1.65524 11.9787 2.00563 12.0965 2.21102 11.8918L2.9526 11.1506C3.87923 11.7071 4.93563 12 6.02568 12C9.27866 12 11.9027 9.45424 11.9998 6.20435C12.005 6.02548 11.8752 5.87098 11.698 5.84557Z" fill="#FF0000"/>
</svg>
