<svg width="14" height="14" viewBox="0 0 14 14" fill="none" xmlns="http://www.w3.org/2000/svg">
<path d="M10.0057 8.80504H9.36937L9.14923 8.58491C9.93369 7.6764 10.4059 6.49571 10.4059 5.20299C10.4059 2.32933 8.0766 0 5.20299 0C2.32937 0 0 2.32933 0 5.20299C0 8.07664 2.32933 10.406 5.20299 10.406C6.49571 10.406 7.6764 9.93369 8.58491 9.15324L8.80504 9.37338V10.0057L12.8073 14L14 12.8073L10.0057 8.80504ZM5.20299 8.80504C3.21386 8.80504 1.60093 7.19211 1.60093 5.20299C1.60093 3.21386 3.21386 1.60093 5.20299 1.60093C7.19211 1.60093 8.80504 3.21386 8.80504 5.20299C8.80504 7.19211 7.19211 8.80504 5.20299 8.80504Z" fill="#FF0000"/>
</svg>
