<svg width="10" height="12" viewBox="0 0 10 12" fill="none" xmlns="http://www.w3.org/2000/svg">
<path d="M8.66706 1.41299H7.06483V0.371826C7.06483 0.162254 6.89579 0 6.68624 0C6.6659 0 6.65234 0.00678836 6.64572 0.0135612C6.63893 0.00678836 6.62537 0 6.6186 0H2.85296H2.82599H2.79887C2.58931 0 2.42706 0.162254 2.42706 0.371826V1.413H0.818061C0.358265 1.413 0 1.77127 0 2.23106V2.82601V3.56964H0.709881V11.1887C0.709881 11.6485 1.06137 12 1.52117 12H7.96397C8.42376 12 8.78201 11.6485 8.78201 11.1887V3.56964H9.48512V2.82601V2.23106C9.48512 1.77127 9.12672 1.41299 8.66706 1.41299ZM3.1707 0.743636H6.31442V1.41299H3.1707V0.743636ZM8.0316 11.1887C8.0316 11.2362 8.01127 11.2564 7.96397 11.2564H1.52117C1.47387 11.2564 1.45353 11.2362 1.45353 11.1887V3.56963H8.0316V11.1887ZM8.73471 2.82599H0.750409V2.23105C0.750409 2.18373 0.770743 2.15662 0.818045 2.15662H8.66706C8.71438 2.15662 8.73471 2.18373 8.73471 2.23105V2.82599Z" fill="#868686"/>
<path d="M6.85527 4.44177H6.10486V10.5938H6.85527V4.44177Z" fill="#868686"/>
<path d="M5.12455 4.44177H4.37415V10.5938H5.12455V4.44177Z" fill="#868686"/>
<path d="M3.39382 4.44177H2.64343V10.5938H3.39382V4.44177Z" fill="#868686"/>
</svg>
